<svg width="505" height="505" viewBox="0 0 505 505" fill="none" xmlns="http://www.w3.org/2000/svg">
<path d="M386.16 380.339L265.838 253.437L302.449 226.8L386.16 380.339Z" fill="black"/>
<path d="M385.519 125.045L282.193 266.131L249.435 234.876L385.519 125.045Z" fill="black"/>
<path d="M149.5 120.999L175 252.499L149.5 383.999L124 252.499L149.5 120.999Z" fill="black"/>
<path d="M245.5 120.999L271 252.499L245.5 383.999L220 252.499L245.5 120.999Z" fill="black"/>
<path d="M195.5 240L229 257L195.5 274L162 257L195.5 240Z" fill="black"/>
<path d="M411.374 355.639C416.005 358.65 422.222 357.348 424.998 352.573C448.751 311.703 457.314 263.624 448.957 216.879C440.011 166.844 412.351 122.093 371.597 91.7186C330.843 61.3444 280.054 47.6261 229.55 53.3516C179.046 59.077 132.616 83.8166 99.6958 122.543C66.7758 161.269 49.8354 211.077 52.3172 261.844C54.7989 312.611 76.5166 360.529 113.057 395.86C149.597 431.19 198.219 451.283 249.04 452.056C296.521 452.777 342.595 436.584 379.106 406.559C383.372 403.051 383.655 396.705 379.939 392.62V392.62C376.222 388.534 369.914 388.26 365.629 391.744C332.893 418.361 291.742 432.702 249.344 432.058C203.605 431.363 159.845 413.279 126.959 381.481C94.0728 349.684 74.5269 306.558 72.2933 260.867C70.0598 215.177 85.3061 170.35 114.934 135.497C144.562 100.643 186.349 78.3772 231.803 73.2243C277.256 68.0713 322.967 80.4178 359.645 107.755C396.324 135.091 421.218 175.368 429.269 220.399C436.732 262.139 429.204 305.062 408.206 341.657C405.458 346.447 406.744 352.629 411.374 355.639V355.639Z" fill="black"/>
</svg>
