<svg width="34" height="34" viewBox="0 0 34 34" fill="none" xmlns="http://www.w3.org/2000/svg">
<path d="M3.1875 12.75C3.1875 5.3125 10.625 5.3125 17 5.3125C23.375 5.3125 30.8125 5.3125 30.8125 12.75C30.8125 21.25 23.375 11.6875 23.375 11.6875H10.625C10.625 11.6875 3.1875 21.25 3.1875 12.75ZM11.6875 14.875C11.6875 14.875 6.375 20.1875 6.375 29.75H27.625C27.625 20.1875 22.3125 14.875 22.3125 14.875H11.6875Z" stroke="black" stroke-width="2" stroke-linecap="round" stroke-linejoin="round"/>
<path d="M17 26.5625C19.3472 26.5625 21.25 24.6597 21.25 22.3125C21.25 19.9653 19.3472 18.0625 17 18.0625C14.6528 18.0625 12.75 19.9653 12.75 22.3125C12.75 24.6597 14.6528 26.5625 17 26.5625Z" stroke="black" stroke-width="2" stroke-linecap="round" stroke-linejoin="round"/>
</svg>
